<mxfile host="app.diagrams.net" modified="2024-04-05T15:49:43.469Z" agent="Mozilla/5.0 (Windows NT 10.0; Win64; x64) AppleWebKit/537.36 (KHTML, like Gecko) Chrome/123.0.0.0 Safari/537.36" etag="RSb_sWI04Am47E15mpRM" version="24.2.2" type="device">
  <diagram name="第 1 页" id="qelPbhuLzUOkDf-xWIbI">
    <mxGraphModel dx="486" dy="653" grid="1" gridSize="10" guides="1" tooltips="1" connect="1" arrows="1" fold="1" page="1" pageScale="1" pageWidth="827" pageHeight="1169" math="1" shadow="0">
      <root>
        <mxCell id="0" />
        <mxCell id="1" parent="0" />
        <mxCell id="68MBzON7sSJO-ivdht0R-1" value="&lt;font style=&quot;font-size: 22px;&quot;&gt;tnote&lt;/font&gt;" style="ellipse;whiteSpace=wrap;html=1;aspect=fixed;fillColor=#f8cecc;strokeColor=#000000;" parent="1" vertex="1">
          <mxGeometry x="1720" y="120" width="80" height="80" as="geometry" />
        </mxCell>
        <mxCell id="68MBzON7sSJO-ivdht0R-49" style="edgeStyle=orthogonalEdgeStyle;rounded=0;orthogonalLoop=1;jettySize=auto;html=1;strokeColor=#000000;" parent="1" source="68MBzON7sSJO-ivdht0R-2" target="68MBzON7sSJO-ivdht0R-42" edge="1">
          <mxGeometry relative="1" as="geometry">
            <Array as="points">
              <mxPoint x="1880" y="280" />
              <mxPoint x="1880" y="340" />
            </Array>
          </mxGeometry>
        </mxCell>
        <mxCell id="68MBzON7sSJO-ivdht0R-2" value="&lt;font style=&quot;font-size: 22px;&quot;&gt;dnote&lt;/font&gt;" style="ellipse;whiteSpace=wrap;html=1;aspect=fixed;fillColor=#e1d5e7;strokeColor=#000000;" parent="1" vertex="1">
          <mxGeometry x="1720" y="240" width="80" height="80" as="geometry" />
        </mxCell>
        <mxCell id="68MBzON7sSJO-ivdht0R-50" style="edgeStyle=orthogonalEdgeStyle;rounded=0;orthogonalLoop=1;jettySize=auto;html=1;strokeColor=#000000;" parent="1" source="68MBzON7sSJO-ivdht0R-3" target="68MBzON7sSJO-ivdht0R-42" edge="1">
          <mxGeometry relative="1" as="geometry">
            <Array as="points">
              <mxPoint x="1880" y="400" />
              <mxPoint x="1880" y="340" />
            </Array>
          </mxGeometry>
        </mxCell>
        <mxCell id="68MBzON7sSJO-ivdht0R-3" value="&lt;font style=&quot;font-size: 22px;&quot;&gt;anote&lt;/font&gt;" style="ellipse;whiteSpace=wrap;html=1;aspect=fixed;fillColor=#fff2cc;strokeColor=#000000;" parent="1" vertex="1">
          <mxGeometry x="1720" y="360" width="80" height="80" as="geometry" />
        </mxCell>
        <mxCell id="68MBzON7sSJO-ivdht0R-4" value="&lt;font style=&quot;font-size: 22px;&quot;&gt;inote&lt;/font&gt;" style="ellipse;whiteSpace=wrap;html=1;aspect=fixed;fillColor=#76608a;strokeColor=#000000;fontColor=#ffffff;" parent="1" vertex="1">
          <mxGeometry x="1720" y="480" width="80" height="80" as="geometry" />
        </mxCell>
        <mxCell id="68MBzON7sSJO-ivdht0R-31" style="edgeStyle=orthogonalEdgeStyle;rounded=0;orthogonalLoop=1;jettySize=auto;html=1;entryX=0;entryY=0.5;entryDx=0;entryDy=0;strokeColor=#050505;shadow=0;" parent="1" source="68MBzON7sSJO-ivdht0R-5" target="68MBzON7sSJO-ivdht0R-7" edge="1">
          <mxGeometry relative="1" as="geometry">
            <Array as="points">
              <mxPoint x="1120" y="500" />
              <mxPoint x="1120" y="400" />
            </Array>
          </mxGeometry>
        </mxCell>
        <mxCell id="68MBzON7sSJO-ivdht0R-35" style="edgeStyle=orthogonalEdgeStyle;rounded=0;orthogonalLoop=1;jettySize=auto;html=1;entryX=0;entryY=0.5;entryDx=0;entryDy=0;strokeColor=#050505;shadow=0;" parent="1" source="68MBzON7sSJO-ivdht0R-5" target="68MBzON7sSJO-ivdht0R-11" edge="1">
          <mxGeometry relative="1" as="geometry" />
        </mxCell>
        <mxCell id="68MBzON7sSJO-ivdht0R-5" value="&lt;font style=&quot;font-size: 22px;&quot;&gt;L&lt;/font&gt;" style="ellipse;whiteSpace=wrap;html=1;aspect=fixed;fillColor=#b0e3e6;strokeColor=#050505;shadow=0;" parent="1" vertex="1">
          <mxGeometry x="1000" y="460" width="80" height="80" as="geometry" />
        </mxCell>
        <mxCell id="68MBzON7sSJO-ivdht0R-30" style="edgeStyle=orthogonalEdgeStyle;rounded=0;orthogonalLoop=1;jettySize=auto;html=1;entryX=0;entryY=0.5;entryDx=0;entryDy=0;strokeColor=#050505;shadow=0;" parent="1" source="68MBzON7sSJO-ivdht0R-6" target="68MBzON7sSJO-ivdht0R-7" edge="1">
          <mxGeometry relative="1" as="geometry" />
        </mxCell>
        <mxCell id="68MBzON7sSJO-ivdht0R-33" style="edgeStyle=orthogonalEdgeStyle;rounded=0;orthogonalLoop=1;jettySize=auto;html=1;strokeColor=#050505;shadow=0;" parent="1" source="68MBzON7sSJO-ivdht0R-6" target="68MBzON7sSJO-ivdht0R-11" edge="1">
          <mxGeometry relative="1" as="geometry">
            <Array as="points">
              <mxPoint x="1240" y="400" />
              <mxPoint x="1240" y="500" />
            </Array>
          </mxGeometry>
        </mxCell>
        <mxCell id="68MBzON7sSJO-ivdht0R-41" style="edgeStyle=orthogonalEdgeStyle;rounded=0;orthogonalLoop=1;jettySize=auto;html=1;strokeColor=#050505;shadow=0;" parent="1" source="68MBzON7sSJO-ivdht0R-6" edge="1">
          <mxGeometry relative="1" as="geometry">
            <mxPoint x="1520" y="400" as="targetPoint" />
            <Array as="points">
              <mxPoint x="1040" y="350" />
              <mxPoint x="1400" y="350" />
              <mxPoint x="1400" y="401" />
            </Array>
          </mxGeometry>
        </mxCell>
        <mxCell id="68MBzON7sSJO-ivdht0R-6" value="&lt;font style=&quot;font-size: 22px;&quot;&gt;M&lt;/font&gt;" style="ellipse;whiteSpace=wrap;html=1;aspect=fixed;fillColor=#b1ddf0;strokeColor=#050505;shadow=0;" parent="1" vertex="1">
          <mxGeometry x="1000" y="360" width="80" height="80" as="geometry" />
        </mxCell>
        <mxCell id="68MBzON7sSJO-ivdht0R-40" style="edgeStyle=orthogonalEdgeStyle;rounded=0;orthogonalLoop=1;jettySize=auto;html=1;entryX=0;entryY=0.5;entryDx=0;entryDy=0;strokeColor=#050505;shadow=0;" parent="1" source="68MBzON7sSJO-ivdht0R-7" target="68MBzON7sSJO-ivdht0R-12" edge="1">
          <mxGeometry relative="1" as="geometry" />
        </mxCell>
        <mxCell id="68MBzON7sSJO-ivdht0R-7" value="&lt;font style=&quot;font-size: 22px;&quot;&gt;T&lt;/font&gt;" style="ellipse;whiteSpace=wrap;html=1;aspect=fixed;fillColor=#d0cee2;strokeColor=#050505;shadow=0;" parent="1" vertex="1">
          <mxGeometry x="1281" y="360" width="80" height="80" as="geometry" />
        </mxCell>
        <mxCell id="68MBzON7sSJO-ivdht0R-17" style="edgeStyle=orthogonalEdgeStyle;rounded=0;orthogonalLoop=1;jettySize=auto;html=1;entryX=0;entryY=0.5;entryDx=0;entryDy=0;strokeColor=#050505;shadow=0;" parent="1" source="68MBzON7sSJO-ivdht0R-8" target="68MBzON7sSJO-ivdht0R-9" edge="1">
          <mxGeometry relative="1" as="geometry" />
        </mxCell>
        <mxCell id="68MBzON7sSJO-ivdht0R-21" style="edgeStyle=orthogonalEdgeStyle;rounded=0;orthogonalLoop=1;jettySize=auto;html=1;entryX=0;entryY=0.5;entryDx=0;entryDy=0;strokeColor=#050505;shadow=0;" parent="1" source="68MBzON7sSJO-ivdht0R-8" target="68MBzON7sSJO-ivdht0R-10" edge="1">
          <mxGeometry relative="1" as="geometry" />
        </mxCell>
        <mxCell id="68MBzON7sSJO-ivdht0R-8" value="&lt;font style=&quot;font-size: 22px;&quot;&gt;F&lt;/font&gt;" style="ellipse;whiteSpace=wrap;html=1;aspect=fixed;fillColor=#bac8d3;strokeColor=#050505;shadow=0;" parent="1" vertex="1">
          <mxGeometry x="840" y="200" width="80" height="80" as="geometry" />
        </mxCell>
        <mxCell id="68MBzON7sSJO-ivdht0R-19" style="edgeStyle=orthogonalEdgeStyle;rounded=0;orthogonalLoop=1;jettySize=auto;html=1;entryX=0;entryY=0.5;entryDx=0;entryDy=0;exitX=1;exitY=0;exitDx=0;exitDy=0;strokeColor=#050505;shadow=0;" parent="1" source="68MBzON7sSJO-ivdht0R-9" target="68MBzON7sSJO-ivdht0R-10" edge="1">
          <mxGeometry relative="1" as="geometry" />
        </mxCell>
        <mxCell id="68MBzON7sSJO-ivdht0R-29" style="edgeStyle=orthogonalEdgeStyle;rounded=0;orthogonalLoop=1;jettySize=auto;html=1;entryX=0;entryY=0.5;entryDx=0;entryDy=0;exitX=1;exitY=1;exitDx=0;exitDy=0;strokeColor=#050505;shadow=0;" parent="1" source="68MBzON7sSJO-ivdht0R-9" target="68MBzON7sSJO-ivdht0R-7" edge="1">
          <mxGeometry relative="1" as="geometry">
            <Array as="points">
              <mxPoint x="1160" y="328" />
              <mxPoint x="1160" y="400" />
            </Array>
          </mxGeometry>
        </mxCell>
        <mxCell id="68MBzON7sSJO-ivdht0R-9" value="&lt;span style=&quot;font-size: 22px;&quot;&gt;f&lt;/span&gt;" style="ellipse;whiteSpace=wrap;html=1;aspect=fixed;fillColor=#e51400;strokeColor=#050505;fontColor=#ffffff;shadow=0;" parent="1" vertex="1">
          <mxGeometry x="1000" y="260" width="80" height="80" as="geometry" />
        </mxCell>
        <mxCell id="68MBzON7sSJO-ivdht0R-32" style="edgeStyle=orthogonalEdgeStyle;rounded=0;orthogonalLoop=1;jettySize=auto;html=1;entryX=0.5;entryY=0;entryDx=0;entryDy=0;strokeColor=#050505;shadow=0;" parent="1" source="68MBzON7sSJO-ivdht0R-10" target="68MBzON7sSJO-ivdht0R-11" edge="1">
          <mxGeometry relative="1" as="geometry" />
        </mxCell>
        <mxCell id="68MBzON7sSJO-ivdht0R-10" value="&lt;span style=&quot;font-size: 22px;&quot;&gt;$$\tau$$&lt;/span&gt;" style="ellipse;whiteSpace=wrap;html=1;aspect=fixed;fillColor=#fa6800;strokeColor=#050505;fontColor=#000000;shadow=0;" parent="1" vertex="1">
          <mxGeometry x="1400" y="200" width="80" height="80" as="geometry" />
        </mxCell>
        <mxCell id="68MBzON7sSJO-ivdht0R-39" style="edgeStyle=orthogonalEdgeStyle;rounded=0;orthogonalLoop=1;jettySize=auto;html=1;entryX=0.5;entryY=1;entryDx=0;entryDy=0;strokeColor=#050505;shadow=0;" parent="1" source="68MBzON7sSJO-ivdht0R-11" target="68MBzON7sSJO-ivdht0R-12" edge="1">
          <mxGeometry relative="1" as="geometry" />
        </mxCell>
        <mxCell id="68MBzON7sSJO-ivdht0R-11" value="&lt;font style=&quot;font-size: 22px;&quot;&gt;R&lt;/font&gt;" style="ellipse;whiteSpace=wrap;html=1;aspect=fixed;fillColor=#f0a30a;strokeColor=#050505;fontColor=#000000;shadow=0;" parent="1" vertex="1">
          <mxGeometry x="1400" y="460" width="80" height="80" as="geometry" />
        </mxCell>
        <mxCell id="68MBzON7sSJO-ivdht0R-12" value="&lt;font style=&quot;font-size: 22px;&quot;&gt;dtmax&lt;/font&gt;" style="ellipse;whiteSpace=wrap;html=1;aspect=fixed;fillColor=#e3c800;strokeColor=#050505;fontColor=#000000;shadow=0;" parent="1" vertex="1">
          <mxGeometry x="1520" y="360" width="80" height="80" as="geometry" />
        </mxCell>
        <mxCell id="68MBzON7sSJO-ivdht0R-18" style="edgeStyle=orthogonalEdgeStyle;rounded=0;orthogonalLoop=1;jettySize=auto;html=1;entryX=0;entryY=0.5;entryDx=0;entryDy=0;strokeColor=#050505;shadow=0;" parent="1" source="68MBzON7sSJO-ivdht0R-14" target="68MBzON7sSJO-ivdht0R-9" edge="1">
          <mxGeometry relative="1" as="geometry" />
        </mxCell>
        <mxCell id="68MBzON7sSJO-ivdht0R-14" value="&lt;font style=&quot;font-size: 22px;&quot;&gt;temp&lt;/font&gt;" style="ellipse;whiteSpace=wrap;html=1;aspect=fixed;fillColor=#6d8764;strokeColor=#050505;fontColor=#ffffff;shadow=0;" parent="1" vertex="1">
          <mxGeometry x="840" y="320" width="80" height="80" as="geometry" />
        </mxCell>
        <mxCell id="68MBzON7sSJO-ivdht0R-20" style="edgeStyle=orthogonalEdgeStyle;rounded=0;orthogonalLoop=1;jettySize=auto;html=1;entryX=0;entryY=0.5;entryDx=0;entryDy=0;strokeColor=#050505;shadow=0;" parent="1" source="68MBzON7sSJO-ivdht0R-15" target="68MBzON7sSJO-ivdht0R-10" edge="1">
          <mxGeometry relative="1" as="geometry" />
        </mxCell>
        <mxCell id="68MBzON7sSJO-ivdht0R-15" value="&lt;font style=&quot;font-size: 22px;&quot;&gt;moist&lt;/font&gt;" style="ellipse;whiteSpace=wrap;html=1;aspect=fixed;fillColor=#647687;strokeColor=#050505;fontColor=#ffffff;shadow=0;" parent="1" vertex="1">
          <mxGeometry x="1000" y="140" width="80" height="80" as="geometry" />
        </mxCell>
        <mxCell id="68MBzON7sSJO-ivdht0R-16" value="&lt;font style=&quot;font-size: 22px;&quot;&gt;pedal&lt;/font&gt;" style="ellipse;whiteSpace=wrap;html=1;aspect=fixed;fillColor=#a0522d;strokeColor=#000000;fontColor=#ffffff;" parent="1" vertex="1">
          <mxGeometry x="2120" y="40" width="80" height="80" as="geometry" />
        </mxCell>
        <mxCell id="68MBzON7sSJO-ivdht0R-27" value="" style="endArrow=classic;html=1;rounded=0;exitX=1;exitY=0.5;exitDx=0;exitDy=0;strokeColor=#050505;shadow=0;" parent="1" source="68MBzON7sSJO-ivdht0R-15" edge="1">
          <mxGeometry width="50" height="50" relative="1" as="geometry">
            <mxPoint x="750" y="490" as="sourcePoint" />
            <mxPoint x="1280" y="400" as="targetPoint" />
            <Array as="points">
              <mxPoint x="1160" y="180" />
              <mxPoint x="1160" y="400" />
            </Array>
          </mxGeometry>
        </mxCell>
        <mxCell id="68MBzON7sSJO-ivdht0R-37" value="&lt;font style=&quot;font-size: 22px;&quot;&gt;V&lt;/font&gt;" style="ellipse;whiteSpace=wrap;html=1;aspect=fixed;fillColor=#cdeb8b;strokeColor=#000000;" parent="1" vertex="1">
          <mxGeometry x="1920" y="120" width="80" height="80" as="geometry" />
        </mxCell>
        <mxCell id="68MBzON7sSJO-ivdht0R-38" value="&lt;font style=&quot;font-size: 22px;&quot;&gt;H&lt;br&gt;&lt;/font&gt;" style="ellipse;whiteSpace=wrap;html=1;aspect=fixed;fillColor=#ffcccc;strokeColor=#000000;" parent="1" vertex="1">
          <mxGeometry x="1920" y="480" width="80" height="80" as="geometry" />
        </mxCell>
        <mxCell id="68MBzON7sSJO-ivdht0R-54" style="edgeStyle=orthogonalEdgeStyle;rounded=0;orthogonalLoop=1;jettySize=auto;html=1;entryX=0;entryY=0.5;entryDx=0;entryDy=0;strokeColor=#000000;" parent="1" source="68MBzON7sSJO-ivdht0R-42" target="68MBzON7sSJO-ivdht0R-53" edge="1">
          <mxGeometry relative="1" as="geometry" />
        </mxCell>
        <mxCell id="68MBzON7sSJO-ivdht0R-42" value="&lt;font style=&quot;font-size: 22px;&quot;&gt;String loop&lt;/font&gt;" style="shape=or;whiteSpace=wrap;html=1;fillColor=#e6d0de;gradientColor=#d5739d;strokeColor=#000000;" parent="1" vertex="1">
          <mxGeometry x="2080" y="240" width="160" height="200" as="geometry" />
        </mxCell>
        <mxCell id="68MBzON7sSJO-ivdht0R-43" style="edgeStyle=orthogonalEdgeStyle;rounded=0;orthogonalLoop=1;jettySize=auto;html=1;strokeColor=#000000;" parent="1" source="68MBzON7sSJO-ivdht0R-16" edge="1">
          <mxGeometry relative="1" as="geometry">
            <mxPoint x="2160" y="250" as="targetPoint" />
          </mxGeometry>
        </mxCell>
        <mxCell id="68MBzON7sSJO-ivdht0R-46" style="edgeStyle=orthogonalEdgeStyle;rounded=0;orthogonalLoop=1;jettySize=auto;html=1;entryX=0;entryY=0.25;entryDx=0;entryDy=0;entryPerimeter=0;strokeColor=#000000;" parent="1" source="68MBzON7sSJO-ivdht0R-37" target="68MBzON7sSJO-ivdht0R-42" edge="1">
          <mxGeometry relative="1" as="geometry" />
        </mxCell>
        <mxCell id="68MBzON7sSJO-ivdht0R-47" style="edgeStyle=orthogonalEdgeStyle;rounded=0;orthogonalLoop=1;jettySize=auto;html=1;entryX=0;entryY=0.75;entryDx=0;entryDy=0;entryPerimeter=0;strokeColor=#000000;" parent="1" source="68MBzON7sSJO-ivdht0R-38" target="68MBzON7sSJO-ivdht0R-42" edge="1">
          <mxGeometry relative="1" as="geometry" />
        </mxCell>
        <mxCell id="68MBzON7sSJO-ivdht0R-48" style="edgeStyle=orthogonalEdgeStyle;rounded=0;orthogonalLoop=1;jettySize=auto;html=1;entryX=0;entryY=0.5;entryDx=0;entryDy=0;entryPerimeter=0;strokeColor=#000000;" parent="1" source="68MBzON7sSJO-ivdht0R-1" target="68MBzON7sSJO-ivdht0R-42" edge="1">
          <mxGeometry relative="1" as="geometry">
            <Array as="points">
              <mxPoint x="1880" y="160" />
              <mxPoint x="1880" y="340" />
            </Array>
          </mxGeometry>
        </mxCell>
        <mxCell id="68MBzON7sSJO-ivdht0R-51" style="edgeStyle=orthogonalEdgeStyle;rounded=0;orthogonalLoop=1;jettySize=auto;html=1;entryX=0;entryY=0.5;entryDx=0;entryDy=0;entryPerimeter=0;strokeColor=#000000;" parent="1" source="68MBzON7sSJO-ivdht0R-4" target="68MBzON7sSJO-ivdht0R-42" edge="1">
          <mxGeometry relative="1" as="geometry">
            <Array as="points">
              <mxPoint x="1880" y="520" />
              <mxPoint x="1880" y="340" />
            </Array>
          </mxGeometry>
        </mxCell>
        <mxCell id="68MBzON7sSJO-ivdht0R-53" value="&lt;font style=&quot;font-size: 22px;&quot;&gt;S&lt;/font&gt;" style="ellipse;whiteSpace=wrap;html=1;aspect=fixed;fillColor=#dae8fc;strokeColor=#000000;gradientColor=#7ea6e0;" parent="1" vertex="1">
          <mxGeometry x="2320" y="300" width="80" height="80" as="geometry" />
        </mxCell>
        <mxCell id="68MBzON7sSJO-ivdht0R-55" value="&lt;font style=&quot;font-size: 22px;&quot;&gt;M&lt;/font&gt;" style="ellipse;whiteSpace=wrap;html=1;aspect=fixed;fillColor=#b1ddf0;strokeColor=#000000;" parent="1" vertex="1">
          <mxGeometry x="1940" y="600" width="80" height="80" as="geometry" />
        </mxCell>
        <mxCell id="68MBzON7sSJO-ivdht0R-56" value="&lt;font style=&quot;font-size: 22px;&quot;&gt;T&lt;/font&gt;" style="ellipse;whiteSpace=wrap;html=1;aspect=fixed;fillColor=#d0cee2;strokeColor=#000000;" parent="1" vertex="1">
          <mxGeometry x="2060" y="600" width="80" height="80" as="geometry" />
        </mxCell>
        <mxCell id="68MBzON7sSJO-ivdht0R-57" value="&lt;font style=&quot;font-size: 22px;&quot;&gt;R&lt;/font&gt;" style="ellipse;whiteSpace=wrap;html=1;aspect=fixed;fillColor=#f0a30a;strokeColor=#000000;fontColor=#000000;" parent="1" vertex="1">
          <mxGeometry x="2180" y="600" width="80" height="80" as="geometry" />
        </mxCell>
        <mxCell id="68MBzON7sSJO-ivdht0R-58" value="&lt;font style=&quot;font-size: 22px;&quot;&gt;dtmax&lt;/font&gt;" style="ellipse;whiteSpace=wrap;html=1;aspect=fixed;fillColor=#e3c800;strokeColor=#000000;fontColor=#000000;" parent="1" vertex="1">
          <mxGeometry x="2300" y="600" width="80" height="80" as="geometry" />
        </mxCell>
        <mxCell id="68MBzON7sSJO-ivdht0R-59" style="edgeStyle=orthogonalEdgeStyle;rounded=0;orthogonalLoop=1;jettySize=auto;html=1;entryX=0.481;entryY=0.965;entryDx=0;entryDy=0;entryPerimeter=0;strokeColor=#000000;" parent="1" source="68MBzON7sSJO-ivdht0R-55" target="68MBzON7sSJO-ivdht0R-42" edge="1">
          <mxGeometry relative="1" as="geometry">
            <Array as="points">
              <mxPoint x="1980" y="570" />
              <mxPoint x="2157" y="570" />
            </Array>
          </mxGeometry>
        </mxCell>
        <mxCell id="68MBzON7sSJO-ivdht0R-60" style="edgeStyle=orthogonalEdgeStyle;rounded=0;orthogonalLoop=1;jettySize=auto;html=1;entryX=0.481;entryY=0.955;entryDx=0;entryDy=0;entryPerimeter=0;strokeColor=#000000;" parent="1" source="68MBzON7sSJO-ivdht0R-56" target="68MBzON7sSJO-ivdht0R-42" edge="1">
          <mxGeometry relative="1" as="geometry">
            <Array as="points">
              <mxPoint x="2100" y="570" />
              <mxPoint x="2157" y="570" />
            </Array>
          </mxGeometry>
        </mxCell>
        <mxCell id="68MBzON7sSJO-ivdht0R-61" style="edgeStyle=orthogonalEdgeStyle;rounded=0;orthogonalLoop=1;jettySize=auto;html=1;entryX=0.481;entryY=0.975;entryDx=0;entryDy=0;entryPerimeter=0;strokeColor=#000000;" parent="1" source="68MBzON7sSJO-ivdht0R-57" target="68MBzON7sSJO-ivdht0R-42" edge="1">
          <mxGeometry relative="1" as="geometry">
            <Array as="points">
              <mxPoint x="2220" y="570" />
              <mxPoint x="2157" y="570" />
            </Array>
          </mxGeometry>
        </mxCell>
        <mxCell id="68MBzON7sSJO-ivdht0R-62" style="edgeStyle=orthogonalEdgeStyle;rounded=0;orthogonalLoop=1;jettySize=auto;html=1;entryX=0.475;entryY=0.975;entryDx=0;entryDy=0;entryPerimeter=0;strokeColor=#000000;" parent="1" source="68MBzON7sSJO-ivdht0R-58" target="68MBzON7sSJO-ivdht0R-42" edge="1">
          <mxGeometry relative="1" as="geometry">
            <Array as="points">
              <mxPoint x="2340" y="570" />
              <mxPoint x="2156" y="570" />
            </Array>
          </mxGeometry>
        </mxCell>
      </root>
    </mxGraphModel>
  </diagram>
</mxfile>
